<svg xmlns="http://www.w3.org/2000/svg"
    xmlns:xlink="http://www.w3.org/1999/xlink" width="500" zoomAndPan="magnify" viewBox="0 0 375 374.999991" height="500" preserveAspectRatio="xMidYMid meet" version="1.0">
    <defs>
        <g/>
        <clipPath id="98af2fbf89">
            <path d="M 130 78.9375 L 252.636719 78.9375 L 252.636719 203 L 130 203 Z M 130 78.9375 " clip-rule="nonzero"/>
        </clipPath>
        <clipPath id="eee94d90d3">
            <path d="M 122.136719 93 L 239 93 L 239 209.4375 L 122.136719 209.4375 Z M 122.136719 93 " clip-rule="nonzero"/>
        </clipPath>
    </defs>
    <g clip-path="url(#98af2fbf89)">
        <path fill="#263749" d="M 235.632812 127.785156 C 236.511719 126.582031 237.222656 125.269531 237.878906 123.84375 C 241.933594 114.808594 246.53125 107.90625 252.117188 103.144531 C 248.175781 102.15625 244.121094 103.582031 239.960938 107.414062 C 240.835938 104.019531 241.386719 100.078125 241.714844 95.53125 C 235.632812 100.1875 232.621094 105.71875 233.226562 112.125 C 233.609375 116.066406 233.390625 119.1875 232.457031 121.597656 C 231.800781 123.460938 230.707031 124.828125 229.226562 125.816406 C 228.078125 126.582031 226.652344 127.019531 224.957031 127.183594 C 226.433594 125.378906 226.925781 123.515625 226.542969 121.378906 C 226.160156 119.078125 224.847656 116.503906 222.875 113.492188 C 221.121094 110.863281 220.027344 108.457031 219.535156 106.265625 C 217.78125 99.035156 222.4375 94.21875 232.566406 92.410156 C 230.050781 91.699219 226.925781 91.152344 223.203125 90.65625 L 225.285156 78.992188 C 214.113281 86.605469 207.871094 93.230469 207.210938 98.214844 C 206.992188 100.132812 207.542969 101.773438 208.964844 103.199219 C 210.445312 104.621094 211.757812 105.992188 212.90625 107.304688 C 215.589844 110.425781 217.289062 113.4375 217.34375 116.945312 C 208.144531 107.359375 195.21875 101.445312 180.871094 101.445312 C 152.941406 101.445312 130.324219 124.0625 130.324219 151.992188 C 130.324219 179.921875 152.941406 202.539062 180.871094 202.539062 C 208.800781 202.539062 231.417969 179.921875 231.417969 151.992188 C 231.417969 145.75 230.269531 139.835938 228.242188 134.304688 C 229.554688 133.589844 230.816406 132.769531 232.019531 131.785156 C 233.390625 130.632812 234.59375 129.320312 235.632812 127.839844 Z M 235.632812 127.785156 " fill-opacity="1" fill-rule="evenodd"/>
    </g>
    <path fill="#263749" d="M 164.058594 158.34375 C 165.046875 146.84375 151.519531 140.382812 146.152344 149.636719 C 148.507812 148.652344 150.148438 148.433594 151.082031 148.980469 C 147.246094 151.71875 146.152344 156.867188 148.507812 160.917969 C 150.863281 164.972656 155.953125 166.503906 160.171875 164.53125 C 157.707031 164.804688 155.460938 163.164062 154.96875 160.753906 C 154.53125 158.34375 156.007812 155.933594 158.417969 155.332031 C 160.828125 154.730469 163.292969 156.042969 164.058594 158.398438 Z M 164.058594 158.34375 " fill-opacity="1" fill-rule="evenodd"/>
    <path fill="#263749" d="M 205.734375 145.53125 C 199.328125 134.414062 183.0625 142.246094 184.210938 156.042969 C 185.144531 153.195312 188.15625 151.609375 191.003906 152.375 C 193.90625 153.140625 195.65625 155.988281 195.109375 158.890625 C 194.5625 161.792969 191.824219 163.820312 188.867188 163.4375 C 193.960938 165.847656 200.039062 163.929688 202.886719 159.109375 C 205.734375 154.238281 204.363281 147.996094 199.820312 144.761719 C 200.96875 144.105469 202.941406 144.378906 205.734375 145.585938 Z M 205.734375 145.53125 " fill-opacity="1" fill-rule="evenodd"/>
    <path fill="#f0f1e7" d="M 182.84375 170.226562 C 180.105469 167.160156 176.164062 165.519531 172.109375 165.738281 C 168.003906 165.957031 164.277344 168.039062 161.867188 171.324219 C 167.949219 166.558594 176.328125 166.121094 182.84375 170.226562 Z M 182.84375 170.226562 " fill-opacity="1" fill-rule="evenodd"/>
    <path fill="#f0f1e7" d="M 172.109375 164.039062 C 179.285156 163.820312 184.980469 171.105469 199.765625 176.910156 C 216.578125 183.535156 220.792969 164.53125 220.792969 152.265625 C 220.792969 151.445312 220.738281 150.566406 220.683594 149.746094 C 219.535156 138.574219 212.578125 121.707031 199.765625 127.621094 C 185.855469 134.03125 176.984375 143.230469 167.949219 145.203125 C 163.621094 146.132812 158.199219 142.191406 152.394531 137.699219 C 141.441406 129.210938 135.910156 138.519531 137.554688 156.320312 C 138.101562 162.5625 141.605469 181.949219 152.394531 176.855469 C 160.171875 173.183594 160.445312 164.367188 172.109375 163.984375 Z M 184.210938 156.042969 C 183.0625 142.246094 199.328125 134.414062 205.734375 145.53125 C 202.941406 144.324219 200.96875 144.050781 199.820312 144.707031 C 204.417969 147.996094 205.734375 154.183594 202.886719 159.054688 C 200.039062 163.929688 193.960938 165.792969 188.867188 163.382812 C 191.824219 163.765625 194.5625 161.738281 195.109375 158.835938 C 195.65625 155.933594 193.851562 153.03125 191.003906 152.320312 C 188.101562 151.554688 185.144531 153.195312 184.210938 155.988281 Z M 158.417969 155.277344 C 156.007812 155.878906 154.53125 158.289062 154.96875 160.699219 C 155.40625 163.109375 157.707031 164.804688 160.171875 164.476562 C 155.953125 166.449219 150.863281 164.917969 148.507812 160.863281 C 146.152344 156.8125 147.246094 151.664062 151.082031 148.925781 C 150.148438 148.378906 148.507812 148.597656 146.152344 149.582031 C 151.464844 140.328125 164.992188 146.84375 164.058594 158.289062 C 163.292969 155.933594 160.828125 154.621094 158.417969 155.222656 Z M 158.417969 155.277344 " fill-opacity="1" fill-rule="evenodd"/>
    <g clip-path="url(#eee94d90d3)">
        <path fill="#263749" d="M 142.867188 189.230469 C 133.28125 179.648438 127.3125 166.394531 127.3125 151.71875 C 127.3125 137.097656 133.226562 123.789062 142.867188 114.207031 C 152.449219 104.621094 165.703125 98.652344 180.378906 98.652344 C 192.753906 98.652344 204.199219 102.925781 213.238281 110.042969 C 212.796875 109.441406 212.304688 108.785156 211.757812 108.238281 C 210.554688 106.8125 209.238281 105.5 207.871094 104.183594 C 206.609375 102.925781 205.84375 101.445312 205.625 99.75 C 198.011719 96.023438 189.414062 93.945312 180.378906 93.945312 C 164.441406 93.945312 149.984375 100.40625 139.582031 110.863281 C 129.121094 121.324219 122.660156 135.726562 122.660156 151.664062 C 122.660156 167.597656 129.121094 182.058594 139.582031 192.460938 C 150.039062 202.921875 164.441406 209.382812 180.378906 209.382812 C 196.316406 209.382812 210.773438 202.921875 221.175781 192.460938 C 231.636719 182.003906 238.097656 167.597656 238.097656 151.664062 C 238.097656 144.542969 236.839844 137.753906 234.484375 131.457031 C 233.992188 131.949219 233.5 132.386719 232.953125 132.824219 C 232.183594 133.425781 231.417969 134.03125 230.597656 134.578125 C 232.402344 139.945312 233.390625 145.695312 233.390625 151.664062 C 233.390625 166.285156 227.476562 179.59375 217.835938 189.175781 C 208.253906 198.757812 195 204.730469 180.324219 204.730469 C 165.703125 204.730469 152.394531 198.8125 142.8125 189.175781 Z M 142.867188 189.230469 " fill-opacity="1" fill-rule="evenodd"/>
    </g>
    <g fill="#263749" fill-opacity="1">
        <g transform="translate(98.98371, 255.473993)">
            <g>
                <path d="M 1.3125 -29.546875 L 9.3125 -29.546875 C 11.46875 -29.546875 13.03125 -29.015625 14 -27.953125 C 14.976562 -26.898438 15.46875 -25.179688 15.46875 -22.796875 L 15.46875 -21.5 C 15.46875 -18.675781 14.460938 -16.988281 12.453125 -16.4375 C 13.691406 -16.113281 14.5625 -15.367188 15.0625 -14.203125 C 15.5625 -13.035156 15.8125 -11.488281 15.8125 -9.5625 C 15.8125 -6.414062 15.34375 -4.035156 14.40625 -2.421875 C 13.46875 -0.804688 11.769531 0 9.3125 0 L 1.3125 0 Z M 8.28125 -18.4375 C 8.789062 -18.4375 9.132812 -18.625 9.3125 -19 C 9.5 -19.375 9.59375 -19.90625 9.59375 -20.59375 L 9.59375 -23.5625 C 9.59375 -24.519531 9.171875 -25 8.328125 -25 L 7.078125 -25 L 7.078125 -18.4375 Z M 7.671875 -5.1875 C 9.203125 -5.1875 9.96875 -5.921875 9.96875 -7.390625 L 9.96875 -11.078125 C 9.96875 -11.972656 9.835938 -12.648438 9.578125 -13.109375 C 9.316406 -13.566406 8.851562 -13.796875 8.1875 -13.796875 L 7.078125 -13.796875 L 7.078125 -5.234375 Z M 7.671875 -5.1875 "/>
            </g>
        </g>
    </g>
    <g fill="#263749" fill-opacity="1">
        <g transform="translate(115.45868, 255.473993)">
            <g>
                <path d="M 8.15625 0.28125 C 5.71875 0.28125 3.910156 -0.40625 2.734375 -1.78125 C 1.554688 -3.164062 0.96875 -5.207031 0.96875 -7.90625 L 0.96875 -29.546875 L 6.703125 -29.546875 L 6.703125 -8.15625 C 6.703125 -7.207031 6.789062 -6.46875 6.96875 -5.9375 C 7.15625 -5.414062 7.550781 -5.15625 8.15625 -5.15625 C 8.75 -5.15625 9.132812 -5.410156 9.3125 -5.921875 C 9.5 -6.441406 9.59375 -7.1875 9.59375 -8.15625 L 9.59375 -29.546875 L 15.34375 -29.546875 L 15.34375 -7.90625 C 15.34375 -5.207031 14.75 -3.164062 13.5625 -1.78125 C 12.382812 -0.40625 10.582031 0.28125 8.15625 0.28125 Z M 8.15625 0.28125 "/>
            </g>
        </g>
    </g>
    <g fill="#263749" fill-opacity="1">
        <g transform="translate(131.761669, 255.473993)">
            <g>
                <path d="M 1.3125 -29.546875 L 9.453125 -29.546875 C 11.566406 -29.546875 13.148438 -28.957031 14.203125 -27.78125 C 15.253906 -26.613281 15.789062 -24.882812 15.8125 -22.59375 L 15.890625 -8.765625 C 15.910156 -5.859375 15.40625 -3.671875 14.375 -2.203125 C 13.34375 -0.734375 11.632812 0 9.25 0 L 1.3125 0 Z M 8.28125 -5.234375 C 9.363281 -5.234375 9.90625 -5.757812 9.90625 -6.8125 L 9.90625 -22.046875 C 9.90625 -22.710938 9.851562 -23.210938 9.75 -23.546875 C 9.644531 -23.878906 9.453125 -24.101562 9.171875 -24.21875 C 8.898438 -24.332031 8.476562 -24.390625 7.90625 -24.390625 L 7.25 -24.390625 L 7.25 -5.234375 Z M 8.28125 -5.234375 "/>
            </g>
        </g>
    </g>
    <g fill="#263749" fill-opacity="1">
        <g transform="translate(148.718162, 255.473993)">
            <g>
                <path d="M 7.390625 0.28125 C 5.265625 0.28125 3.675781 -0.46875 2.625 -1.96875 C 1.582031 -3.476562 1.0625 -5.753906 1.0625 -8.796875 L 1.0625 -21.53125 C 1.0625 -24.257812 1.671875 -26.320312 2.890625 -27.71875 C 4.109375 -29.113281 5.921875 -29.8125 8.328125 -29.8125 C 10.273438 -29.8125 11.785156 -29.421875 12.859375 -28.640625 C 13.941406 -27.867188 14.6875 -26.734375 15.09375 -25.234375 C 15.507812 -23.742188 15.71875 -21.832031 15.71875 -19.5 L 9.9375 -19.5 L 9.9375 -22.140625 C 9.9375 -22.859375 9.835938 -23.410156 9.640625 -23.796875 C 9.453125 -24.191406 9.101562 -24.390625 8.59375 -24.390625 C 7.46875 -24.390625 6.90625 -23.65625 6.90625 -22.1875 L 6.90625 -7.875 C 6.90625 -6.976562 7.019531 -6.300781 7.25 -5.84375 C 7.476562 -5.382812 7.878906 -5.15625 8.453125 -5.15625 C 9.023438 -5.15625 9.425781 -5.382812 9.65625 -5.84375 C 9.882812 -6.300781 10 -6.976562 10 -7.875 L 10 -12.109375 L 8.421875 -12.109375 L 8.421875 -17.203125 L 15.640625 -17.203125 L 15.640625 0 L 13.28125 0 L 12.28125 -2.46875 C 11.226562 -0.632812 9.597656 0.28125 7.390625 0.28125 Z M 7.390625 0.28125 "/>
            </g>
        </g>
    </g>
    <g fill="#263749" fill-opacity="1">
        <g transform="translate(165.399493, 255.473993)">
            <g>
                <path d="M 1.3125 0 L 1.3125 -29.546875 L 13.140625 -29.546875 L 13.140625 -23.828125 L 7.328125 -23.828125 L 7.328125 -18.09375 L 12.890625 -18.09375 L 12.890625 -12.515625 L 7.328125 -12.515625 L 7.328125 -5.75 L 13.515625 -5.75 L 13.515625 0 Z M 1.3125 0 "/>
            </g>
        </g>
    </g>
    <g fill="#263749" fill-opacity="1">
        <g transform="translate(179.570024, 255.473993)">
            <g>
                <path d="M 3.859375 0 L 3.859375 -23.859375 L 0.34375 -23.859375 L 0.34375 -29.546875 L 13.28125 -29.546875 L 13.28125 -23.859375 L 9.765625 -23.859375 L 9.765625 0 Z M 3.859375 0 "/>
            </g>
        </g>
    </g>
    <g fill="#263749" fill-opacity="1">
        <g transform="translate(193.190244, 255.473993)">
            <g/>
        </g>
    </g>
    <g fill="#263749" fill-opacity="1">
        <g transform="translate(201.238552, 255.473993)">
            <g>
                <path d="M 1.3125 0 L 1.3125 -29.546875 L 7.390625 -29.546875 L 10.109375 -15.40625 L 10.109375 -29.546875 L 15.8125 -29.546875 L 15.8125 0 L 10.046875 0 L 7.078125 -14.78125 L 7.078125 0 Z M 1.3125 0 "/>
            </g>
        </g>
    </g>
    <g fill="#263749" fill-opacity="1">
        <g transform="translate(218.367015, 255.473993)">
            <g>
                <path d="M 1.03125 0 L 1.03125 -29.546875 L 6.734375 -29.546875 L 6.734375 0 Z M 1.03125 0 "/>
            </g>
        </g>
    </g>
    <g fill="#263749" fill-opacity="1">
        <g transform="translate(226.174563, 255.473993)">
            <g>
                <path d="M 1.3125 0 L 1.3125 -29.546875 L 7.390625 -29.546875 L 10.109375 -15.40625 L 10.109375 -29.546875 L 15.8125 -29.546875 L 15.8125 0 L 10.046875 0 L 7.078125 -14.78125 L 7.078125 0 Z M 1.3125 0 "/>
            </g>
        </g>
    </g>
    <g fill="#263749" fill-opacity="1">
        <g transform="translate(243.303026, 255.473993)">
            <g>
                <path d="M 7.875 0.28125 C 6.519531 0.28125 5.289062 0.015625 4.1875 -0.515625 C 3.09375 -1.046875 2.226562 -1.820312 1.59375 -2.84375 C 0.96875 -3.863281 0.65625 -5.09375 0.65625 -6.53125 L 0.65625 -13.921875 L 6.46875 -13.921875 L 6.46875 -6.875 C 6.46875 -6.351562 6.578125 -5.9375 6.796875 -5.625 C 7.015625 -5.3125 7.351562 -5.15625 7.8125 -5.15625 C 8.238281 -5.15625 8.5625 -5.296875 8.78125 -5.578125 C 9 -5.867188 9.109375 -6.28125 9.109375 -6.8125 L 9.109375 -29.546875 L 15.0625 -29.546875 L 15.0625 -7.390625 C 15.0625 -5.859375 14.753906 -4.507812 14.140625 -3.34375 C 13.535156 -2.1875 12.6875 -1.289062 11.59375 -0.65625 C 10.507812 -0.03125 9.269531 0.28125 7.875 0.28125 Z M 7.875 0.28125 "/>
            </g>
        </g>
    </g>
    <g fill="#263749" fill-opacity="1">
        <g transform="translate(259.330865, 255.473993)">
            <g>
                <path d="M 0.515625 0 L 3.375 -29.546875 L 13.375 -29.546875 L 16.203125 0 L 10.59375 0 L 10.171875 -4.78125 L 6.609375 -4.78125 L 6.265625 0 Z M 7.046875 -9.484375 L 9.734375 -9.484375 L 8.421875 -24.515625 L 8.15625 -24.515625 Z M 7.046875 -9.484375 "/>
            </g>
        </g>
    </g>
</svg>